%FSLAX45Y45*%
G04 Gerber Fmt 4.5, Leading zero omitted, Abs format (unit mm)*
G04 Created by KiCad (PCBNEW 4.0.5+dfsg1-4) date Fri Nov 23 12:42:54 2018*
%MOMM*%
%LPD*%
G01*
G04 APERTURE LIST*
%ADD10C,0.127000*%
%ADD11C,0.150000*%
%ADD12C,0.200000*%
%ADD13C,0.300000*%
G04 APERTURE END LIST*
D10*
D11*
X17703800Y-7454900D02*
X17551400Y-7302500D01*
X17703800Y-8597900D02*
X17703800Y-7454900D01*
X17957800Y-8851900D02*
X17703800Y-8597900D01*
X17957800Y-12128500D02*
X17957800Y-8851900D01*
X17703800Y-12382500D02*
X17957800Y-12128500D01*
X17703800Y-12636500D02*
X17703800Y-12382500D01*
X11099800Y-12636500D02*
X17703800Y-12636500D01*
X11099800Y-7302500D02*
X11099800Y-12636500D01*
X17551400Y-7302500D02*
X11099800Y-7302500D01*
D12*
X13395932Y-10116538D02*
X13455932Y-10176538D01*
X13455932Y-10116538D02*
X13395932Y-10176538D01*
X13400250Y-10340566D02*
X13460250Y-10400566D01*
X13460250Y-10340566D02*
X13400250Y-10400566D01*
X13890470Y-10342598D02*
X13950470Y-10402598D01*
X13950470Y-10342598D02*
X13890470Y-10402598D01*
X13890674Y-10117096D02*
X13950674Y-10177096D01*
X13950674Y-10117096D02*
X13890674Y-10177096D01*
X15893768Y-7931622D02*
X15953768Y-7991622D01*
X15953768Y-7931622D02*
X15893768Y-7991622D01*
X15893768Y-8407372D02*
X15953768Y-8467372D01*
X15953768Y-8407372D02*
X15893768Y-8467372D01*
X16316932Y-9461077D02*
X16376932Y-9521077D01*
X16376932Y-9461077D02*
X16316932Y-9521077D01*
X16316932Y-9748238D02*
X16376932Y-9808238D01*
X16376932Y-9748238D02*
X16316932Y-9808238D01*
X16325060Y-10010620D02*
X16385060Y-10070620D01*
X16385060Y-10010620D02*
X16325060Y-10070620D01*
X16329378Y-10366220D02*
X16389378Y-10426220D01*
X16389378Y-10366220D02*
X16329378Y-10426220D01*
X16518862Y-10757380D02*
X16578862Y-10817380D01*
X16578862Y-10757380D02*
X16518862Y-10817380D01*
X17067248Y-10757380D02*
X17127248Y-10817380D01*
X17127248Y-10757380D02*
X17067248Y-10817380D01*
X17713678Y-9873968D02*
X17773678Y-9933968D01*
X17773678Y-9873968D02*
X17713678Y-9933968D01*
X15232544Y-10147096D02*
G75*
G03X15232544Y-10147096I-50000J0D01*
G01*
X15232544Y-10547096D02*
G75*
G03X15232544Y-10547096I-50000J0D01*
G01*
X15832544Y-10147096D02*
G75*
G03X15832544Y-10147096I-50000J0D01*
G01*
X15832544Y-10547096D02*
G75*
G03X15832544Y-10547096I-50000J0D01*
G01*
X17688052Y-11127232D02*
X17688052Y-11227308D01*
X17638014Y-11177270D02*
X17738090Y-11177270D01*
X17688052Y-11381232D02*
X17688052Y-11481308D01*
X17638014Y-11431270D02*
X17738090Y-11431270D01*
X13015321Y-7592421D02*
X13015321Y-7520579D01*
X12943479Y-7520579D01*
X12943479Y-7592421D01*
X13015321Y-7592421D01*
X13269321Y-7592421D02*
X13269321Y-7520579D01*
X13197479Y-7520579D01*
X13197479Y-7592421D01*
X13269321Y-7592421D01*
X13523321Y-7592421D02*
X13523321Y-7520579D01*
X13451479Y-7520579D01*
X13451479Y-7592421D01*
X13523321Y-7592421D01*
X13777321Y-7592421D02*
X13777321Y-7520579D01*
X13705479Y-7520579D01*
X13705479Y-7592421D01*
X13777321Y-7592421D01*
X13929721Y-12418421D02*
X13929721Y-12346579D01*
X13857879Y-12346579D01*
X13857879Y-12418421D01*
X13929721Y-12418421D01*
X14031321Y-7592421D02*
X14031321Y-7520579D01*
X13959479Y-7520579D01*
X13959479Y-7592421D01*
X14031321Y-7592421D01*
X14183721Y-12418421D02*
X14183721Y-12346579D01*
X14111879Y-12346579D01*
X14111879Y-12418421D01*
X14183721Y-12418421D01*
X14285321Y-7592421D02*
X14285321Y-7520579D01*
X14213479Y-7520579D01*
X14213479Y-7592421D01*
X14285321Y-7592421D01*
X14437721Y-12418421D02*
X14437721Y-12346579D01*
X14365879Y-12346579D01*
X14365879Y-12418421D01*
X14437721Y-12418421D01*
X14438483Y-11243417D02*
X14438483Y-11171575D01*
X14366641Y-11171575D01*
X14366641Y-11243417D01*
X14438483Y-11243417D01*
X14438483Y-11497417D02*
X14438483Y-11425575D01*
X14366641Y-11425575D01*
X14366641Y-11497417D01*
X14438483Y-11497417D01*
X14539321Y-7592421D02*
X14539321Y-7520579D01*
X14467479Y-7520579D01*
X14467479Y-7592421D01*
X14539321Y-7592421D01*
X14691721Y-12418421D02*
X14691721Y-12346579D01*
X14619879Y-12346579D01*
X14619879Y-12418421D01*
X14691721Y-12418421D01*
X14793321Y-7592421D02*
X14793321Y-7520579D01*
X14721479Y-7520579D01*
X14721479Y-7592421D01*
X14793321Y-7592421D01*
X14945721Y-12418421D02*
X14945721Y-12346579D01*
X14873879Y-12346579D01*
X14873879Y-12418421D01*
X14945721Y-12418421D01*
X15047321Y-7592421D02*
X15047321Y-7520579D01*
X14975479Y-7520579D01*
X14975479Y-7592421D01*
X15047321Y-7592421D01*
X15199721Y-12418421D02*
X15199721Y-12346579D01*
X15127879Y-12346579D01*
X15127879Y-12418421D01*
X15199721Y-12418421D01*
X15301321Y-7592421D02*
X15301321Y-7520579D01*
X15229479Y-7520579D01*
X15229479Y-7592421D01*
X15301321Y-7592421D01*
X15453721Y-12418421D02*
X15453721Y-12346579D01*
X15381879Y-12346579D01*
X15381879Y-12418421D01*
X15453721Y-12418421D01*
X15707721Y-7592421D02*
X15707721Y-7520579D01*
X15635879Y-7520579D01*
X15635879Y-7592421D01*
X15707721Y-7592421D01*
X15707721Y-12418421D02*
X15707721Y-12346579D01*
X15635879Y-12346579D01*
X15635879Y-12418421D01*
X15707721Y-12418421D01*
X15961721Y-7592421D02*
X15961721Y-7520579D01*
X15889879Y-7520579D01*
X15889879Y-7592421D01*
X15961721Y-7592421D01*
X16215721Y-7592421D02*
X16215721Y-7520579D01*
X16143879Y-7520579D01*
X16143879Y-7592421D01*
X16215721Y-7592421D01*
X16215721Y-12418421D02*
X16215721Y-12346579D01*
X16143879Y-12346579D01*
X16143879Y-12418421D01*
X16215721Y-12418421D01*
X16469721Y-7592421D02*
X16469721Y-7520579D01*
X16397879Y-7520579D01*
X16397879Y-7592421D01*
X16469721Y-7592421D01*
X16469721Y-12418421D02*
X16469721Y-12346579D01*
X16397879Y-12346579D01*
X16397879Y-12418421D01*
X16469721Y-12418421D01*
X16723721Y-7592421D02*
X16723721Y-7520579D01*
X16651879Y-7520579D01*
X16651879Y-7592421D01*
X16723721Y-7592421D01*
X16723721Y-12418421D02*
X16723721Y-12346579D01*
X16651879Y-12346579D01*
X16651879Y-12418421D01*
X16723721Y-12418421D01*
X16865961Y-9669633D02*
X16865961Y-9597791D01*
X16794119Y-9597791D01*
X16794119Y-9669633D01*
X16865961Y-9669633D01*
X16865961Y-9923633D02*
X16865961Y-9851791D01*
X16794119Y-9851791D01*
X16794119Y-9923633D01*
X16865961Y-9923633D01*
X16865961Y-10177633D02*
X16865961Y-10105791D01*
X16794119Y-10105791D01*
X16794119Y-10177633D01*
X16865961Y-10177633D01*
X16865961Y-10431633D02*
X16865961Y-10359791D01*
X16794119Y-10359791D01*
X16794119Y-10431633D01*
X16865961Y-10431633D01*
X16867485Y-8302605D02*
X16867485Y-8230763D01*
X16795643Y-8230763D01*
X16795643Y-8302605D01*
X16867485Y-8302605D01*
X16867485Y-8785205D02*
X16867485Y-8713363D01*
X16795643Y-8713363D01*
X16795643Y-8785205D01*
X16867485Y-8785205D01*
X16977721Y-7592421D02*
X16977721Y-7520579D01*
X16905879Y-7520579D01*
X16905879Y-7592421D01*
X16977721Y-7592421D01*
X16977721Y-12418421D02*
X16977721Y-12346579D01*
X16905879Y-12346579D01*
X16905879Y-12418421D01*
X16977721Y-12418421D01*
X17119961Y-9669633D02*
X17119961Y-9597791D01*
X17048119Y-9597791D01*
X17048119Y-9669633D01*
X17119961Y-9669633D01*
X17119961Y-9923633D02*
X17119961Y-9851791D01*
X17048119Y-9851791D01*
X17048119Y-9923633D01*
X17119961Y-9923633D01*
X17119961Y-10177633D02*
X17119961Y-10105791D01*
X17048119Y-10105791D01*
X17048119Y-10177633D01*
X17119961Y-10177633D01*
X17119961Y-10431633D02*
X17119961Y-10359791D01*
X17048119Y-10359791D01*
X17048119Y-10431633D01*
X17119961Y-10431633D01*
X17121485Y-8302605D02*
X17121485Y-8230763D01*
X17049643Y-8230763D01*
X17049643Y-8302605D01*
X17121485Y-8302605D01*
X17121485Y-8785205D02*
X17121485Y-8713363D01*
X17049643Y-8713363D01*
X17049643Y-8785205D01*
X17121485Y-8785205D01*
X17166697Y-11191093D02*
X17166697Y-11119251D01*
X17094855Y-11119251D01*
X17094855Y-11191093D01*
X17166697Y-11191093D01*
X17166697Y-11445093D02*
X17166697Y-11373251D01*
X17094855Y-11373251D01*
X17094855Y-11445093D01*
X17166697Y-11445093D01*
X17231721Y-7592421D02*
X17231721Y-7520579D01*
X17159879Y-7520579D01*
X17159879Y-7592421D01*
X17231721Y-7592421D01*
X17231721Y-12418421D02*
X17231721Y-12346579D01*
X17159879Y-12346579D01*
X17159879Y-12418421D01*
X17231721Y-12418421D01*
X17485721Y-7592421D02*
X17485721Y-7520579D01*
X17413879Y-7520579D01*
X17413879Y-7592421D01*
X17485721Y-7592421D01*
X17485721Y-12418421D02*
X17485721Y-12346579D01*
X17413879Y-12346579D01*
X17413879Y-12418421D01*
X17485721Y-12418421D01*
X12496800Y-12534900D02*
X12649200Y-12382500D01*
X12496800Y-12230100D01*
X12344400Y-12382500D01*
X12496800Y-12534900D01*
X12623800Y-7708900D02*
X12776200Y-7556500D01*
X12623800Y-7404100D01*
X12471400Y-7556500D01*
X12623800Y-7708900D01*
X17703800Y-9232900D02*
X17856200Y-9080500D01*
X17703800Y-8928100D01*
X17551400Y-9080500D01*
X17703800Y-9232900D01*
X17703800Y-12026900D02*
X17856200Y-11874500D01*
X17703800Y-11722100D01*
X17551400Y-11874500D01*
X17703800Y-12026900D01*
D13*
X11363728Y-13109714D02*
X11363728Y-12809714D01*
X11435157Y-12809714D01*
X11478014Y-12824000D01*
X11506586Y-12852571D01*
X11520871Y-12881143D01*
X11535157Y-12938286D01*
X11535157Y-12981143D01*
X11520871Y-13038286D01*
X11506586Y-13066857D01*
X11478014Y-13095429D01*
X11435157Y-13109714D01*
X11363728Y-13109714D01*
X11663728Y-13109714D02*
X11663728Y-12909714D01*
X11663728Y-12966857D02*
X11678014Y-12938286D01*
X11692300Y-12924000D01*
X11720871Y-12909714D01*
X11749443Y-12909714D01*
X11849443Y-13109714D02*
X11849443Y-12909714D01*
X11849443Y-12809714D02*
X11835157Y-12824000D01*
X11849443Y-12838286D01*
X11863728Y-12824000D01*
X11849443Y-12809714D01*
X11849443Y-12838286D01*
X12035157Y-13109714D02*
X12006586Y-13095429D01*
X11992300Y-13066857D01*
X11992300Y-12809714D01*
X12192300Y-13109714D02*
X12163728Y-13095429D01*
X12149443Y-13066857D01*
X12149443Y-12809714D01*
X12535157Y-13109714D02*
X12535157Y-12809714D01*
X12635157Y-13024000D01*
X12735157Y-12809714D01*
X12735157Y-13109714D01*
X13006586Y-13109714D02*
X13006586Y-12952571D01*
X12992300Y-12924000D01*
X12963728Y-12909714D01*
X12906586Y-12909714D01*
X12878014Y-12924000D01*
X13006586Y-13095429D02*
X12978014Y-13109714D01*
X12906586Y-13109714D01*
X12878014Y-13095429D01*
X12863728Y-13066857D01*
X12863728Y-13038286D01*
X12878014Y-13009714D01*
X12906586Y-12995429D01*
X12978014Y-12995429D01*
X13006586Y-12981143D01*
X13149443Y-12909714D02*
X13149443Y-13209714D01*
X13149443Y-12924000D02*
X13178014Y-12909714D01*
X13235157Y-12909714D01*
X13263728Y-12924000D01*
X13278014Y-12938286D01*
X13292300Y-12966857D01*
X13292300Y-13052571D01*
X13278014Y-13081143D01*
X13263728Y-13095429D01*
X13235157Y-13109714D01*
X13178014Y-13109714D01*
X13149443Y-13095429D01*
X13420871Y-13081143D02*
X13435157Y-13095429D01*
X13420871Y-13109714D01*
X13406586Y-13095429D01*
X13420871Y-13081143D01*
X13420871Y-13109714D01*
X13420871Y-12924000D02*
X13435157Y-12938286D01*
X13420871Y-12952571D01*
X13406586Y-12938286D01*
X13420871Y-12924000D01*
X13420871Y-12952571D01*
X11032300Y-13574000D02*
X11092300Y-13634000D01*
X11092300Y-13574000D02*
X11032300Y-13634000D01*
X11420871Y-13439714D02*
X11449443Y-13439714D01*
X11478014Y-13454000D01*
X11492300Y-13468286D01*
X11506586Y-13496857D01*
X11520871Y-13554000D01*
X11520871Y-13625429D01*
X11506586Y-13682571D01*
X11492300Y-13711143D01*
X11478014Y-13725429D01*
X11449443Y-13739714D01*
X11420871Y-13739714D01*
X11392300Y-13725429D01*
X11378014Y-13711143D01*
X11363728Y-13682571D01*
X11349443Y-13625429D01*
X11349443Y-13554000D01*
X11363728Y-13496857D01*
X11378014Y-13468286D01*
X11392300Y-13454000D01*
X11420871Y-13439714D01*
X11649443Y-13711143D02*
X11663728Y-13725429D01*
X11649443Y-13739714D01*
X11635157Y-13725429D01*
X11649443Y-13711143D01*
X11649443Y-13739714D01*
X11920871Y-13439714D02*
X11863728Y-13439714D01*
X11835157Y-13454000D01*
X11820871Y-13468286D01*
X11792300Y-13511143D01*
X11778014Y-13568286D01*
X11778014Y-13682571D01*
X11792300Y-13711143D01*
X11806586Y-13725429D01*
X11835157Y-13739714D01*
X11892300Y-13739714D01*
X11920871Y-13725429D01*
X11935157Y-13711143D01*
X11949443Y-13682571D01*
X11949443Y-13611143D01*
X11935157Y-13582571D01*
X11920871Y-13568286D01*
X11892300Y-13554000D01*
X11835157Y-13554000D01*
X11806586Y-13568286D01*
X11792300Y-13582571D01*
X11778014Y-13611143D01*
X12135157Y-13439714D02*
X12163728Y-13439714D01*
X12192300Y-13454000D01*
X12206586Y-13468286D01*
X12220871Y-13496857D01*
X12235157Y-13554000D01*
X12235157Y-13625429D01*
X12220871Y-13682571D01*
X12206586Y-13711143D01*
X12192300Y-13725429D01*
X12163728Y-13739714D01*
X12135157Y-13739714D01*
X12106586Y-13725429D01*
X12092300Y-13711143D01*
X12078014Y-13682571D01*
X12063728Y-13625429D01*
X12063728Y-13554000D01*
X12078014Y-13496857D01*
X12092300Y-13468286D01*
X12106586Y-13454000D01*
X12135157Y-13439714D01*
X12363728Y-13739714D02*
X12363728Y-13539714D01*
X12363728Y-13568286D02*
X12378014Y-13554000D01*
X12406586Y-13539714D01*
X12449443Y-13539714D01*
X12478014Y-13554000D01*
X12492300Y-13582571D01*
X12492300Y-13739714D01*
X12492300Y-13582571D02*
X12506586Y-13554000D01*
X12535157Y-13539714D01*
X12578014Y-13539714D01*
X12606586Y-13554000D01*
X12620871Y-13582571D01*
X12620871Y-13739714D01*
X12763728Y-13739714D02*
X12763728Y-13539714D01*
X12763728Y-13568286D02*
X12778014Y-13554000D01*
X12806586Y-13539714D01*
X12849443Y-13539714D01*
X12878014Y-13554000D01*
X12892300Y-13582571D01*
X12892300Y-13739714D01*
X12892300Y-13582571D02*
X12906586Y-13554000D01*
X12935157Y-13539714D01*
X12978014Y-13539714D01*
X13006586Y-13554000D01*
X13020871Y-13582571D01*
X13020871Y-13739714D01*
X13606586Y-13425429D02*
X13349443Y-13811143D01*
X13992300Y-13439714D02*
X14020871Y-13439714D01*
X14049443Y-13454000D01*
X14063728Y-13468286D01*
X14078014Y-13496857D01*
X14092300Y-13554000D01*
X14092300Y-13625429D01*
X14078014Y-13682571D01*
X14063728Y-13711143D01*
X14049443Y-13725429D01*
X14020871Y-13739714D01*
X13992300Y-13739714D01*
X13963728Y-13725429D01*
X13949443Y-13711143D01*
X13935157Y-13682571D01*
X13920871Y-13625429D01*
X13920871Y-13554000D01*
X13935157Y-13496857D01*
X13949443Y-13468286D01*
X13963728Y-13454000D01*
X13992300Y-13439714D01*
X14220871Y-13711143D02*
X14235157Y-13725429D01*
X14220871Y-13739714D01*
X14206586Y-13725429D01*
X14220871Y-13711143D01*
X14220871Y-13739714D01*
X14420871Y-13439714D02*
X14449443Y-13439714D01*
X14478014Y-13454000D01*
X14492300Y-13468286D01*
X14506585Y-13496857D01*
X14520871Y-13554000D01*
X14520871Y-13625429D01*
X14506585Y-13682571D01*
X14492300Y-13711143D01*
X14478014Y-13725429D01*
X14449443Y-13739714D01*
X14420871Y-13739714D01*
X14392300Y-13725429D01*
X14378014Y-13711143D01*
X14363728Y-13682571D01*
X14349443Y-13625429D01*
X14349443Y-13554000D01*
X14363728Y-13496857D01*
X14378014Y-13468286D01*
X14392300Y-13454000D01*
X14420871Y-13439714D01*
X14635157Y-13468286D02*
X14649443Y-13454000D01*
X14678014Y-13439714D01*
X14749443Y-13439714D01*
X14778014Y-13454000D01*
X14792300Y-13468286D01*
X14806585Y-13496857D01*
X14806585Y-13525429D01*
X14792300Y-13568286D01*
X14620871Y-13739714D01*
X14806585Y-13739714D01*
X15063728Y-13539714D02*
X15063728Y-13739714D01*
X14992300Y-13425429D02*
X14920871Y-13639714D01*
X15106585Y-13639714D01*
X15206586Y-13439714D02*
X15206586Y-13496857D01*
X15320871Y-13439714D02*
X15320871Y-13496857D01*
X15763728Y-13854000D02*
X15749443Y-13839714D01*
X15720871Y-13796857D01*
X15706585Y-13768286D01*
X15692300Y-13725429D01*
X15678014Y-13654000D01*
X15678014Y-13596857D01*
X15692300Y-13525429D01*
X15706585Y-13482571D01*
X15720871Y-13454000D01*
X15749443Y-13411143D01*
X15763728Y-13396857D01*
X16035157Y-13739714D02*
X15863728Y-13739714D01*
X15949443Y-13739714D02*
X15949443Y-13439714D01*
X15920871Y-13482571D01*
X15892300Y-13511143D01*
X15863728Y-13525429D01*
X16135157Y-13439714D02*
X16320871Y-13439714D01*
X16220871Y-13554000D01*
X16263728Y-13554000D01*
X16292300Y-13568286D01*
X16306585Y-13582571D01*
X16320871Y-13611143D01*
X16320871Y-13682571D01*
X16306585Y-13711143D01*
X16292300Y-13725429D01*
X16263728Y-13739714D01*
X16178014Y-13739714D01*
X16149443Y-13725429D01*
X16135157Y-13711143D01*
X16678014Y-13739714D02*
X16678014Y-13439714D01*
X16806586Y-13739714D02*
X16806586Y-13582571D01*
X16792300Y-13554000D01*
X16763728Y-13539714D01*
X16720871Y-13539714D01*
X16692300Y-13554000D01*
X16678014Y-13568286D01*
X16992300Y-13739714D02*
X16963728Y-13725429D01*
X16949443Y-13711143D01*
X16935157Y-13682571D01*
X16935157Y-13596857D01*
X16949443Y-13568286D01*
X16963728Y-13554000D01*
X16992300Y-13539714D01*
X17035157Y-13539714D01*
X17063728Y-13554000D01*
X17078014Y-13568286D01*
X17092300Y-13596857D01*
X17092300Y-13682571D01*
X17078014Y-13711143D01*
X17063728Y-13725429D01*
X17035157Y-13739714D01*
X16992300Y-13739714D01*
X17263728Y-13739714D02*
X17235157Y-13725429D01*
X17220871Y-13696857D01*
X17220871Y-13439714D01*
X17492300Y-13725429D02*
X17463729Y-13739714D01*
X17406586Y-13739714D01*
X17378014Y-13725429D01*
X17363729Y-13696857D01*
X17363729Y-13582571D01*
X17378014Y-13554000D01*
X17406586Y-13539714D01*
X17463729Y-13539714D01*
X17492300Y-13554000D01*
X17506586Y-13582571D01*
X17506586Y-13611143D01*
X17363729Y-13639714D01*
X17620871Y-13725429D02*
X17649443Y-13739714D01*
X17706586Y-13739714D01*
X17735157Y-13725429D01*
X17749443Y-13696857D01*
X17749443Y-13682571D01*
X17735157Y-13654000D01*
X17706586Y-13639714D01*
X17663729Y-13639714D01*
X17635157Y-13625429D01*
X17620871Y-13596857D01*
X17620871Y-13582571D01*
X17635157Y-13554000D01*
X17663729Y-13539714D01*
X17706586Y-13539714D01*
X17735157Y-13554000D01*
X17849443Y-13854000D02*
X17863729Y-13839714D01*
X17892300Y-13796857D01*
X17906586Y-13768286D01*
X17920871Y-13725429D01*
X17935157Y-13654000D01*
X17935157Y-13596857D01*
X17920871Y-13525429D01*
X17906586Y-13482571D01*
X17892300Y-13454000D01*
X17863729Y-13411143D01*
X17849443Y-13396857D01*
X11092300Y-14000000D02*
G75*
G03X11092300Y-14000000I-50000J0D01*
G01*
X11520871Y-14135714D02*
X11349443Y-14135714D01*
X11435157Y-14135714D02*
X11435157Y-13835714D01*
X11406586Y-13878571D01*
X11378014Y-13907143D01*
X11349443Y-13921429D01*
X11649443Y-14107143D02*
X11663728Y-14121429D01*
X11649443Y-14135714D01*
X11635157Y-14121429D01*
X11649443Y-14107143D01*
X11649443Y-14135714D01*
X11849443Y-13835714D02*
X11878014Y-13835714D01*
X11906586Y-13850000D01*
X11920871Y-13864286D01*
X11935157Y-13892857D01*
X11949443Y-13950000D01*
X11949443Y-14021429D01*
X11935157Y-14078571D01*
X11920871Y-14107143D01*
X11906586Y-14121429D01*
X11878014Y-14135714D01*
X11849443Y-14135714D01*
X11820871Y-14121429D01*
X11806586Y-14107143D01*
X11792300Y-14078571D01*
X11778014Y-14021429D01*
X11778014Y-13950000D01*
X11792300Y-13892857D01*
X11806586Y-13864286D01*
X11820871Y-13850000D01*
X11849443Y-13835714D01*
X12135157Y-13835714D02*
X12163728Y-13835714D01*
X12192300Y-13850000D01*
X12206586Y-13864286D01*
X12220871Y-13892857D01*
X12235157Y-13950000D01*
X12235157Y-14021429D01*
X12220871Y-14078571D01*
X12206586Y-14107143D01*
X12192300Y-14121429D01*
X12163728Y-14135714D01*
X12135157Y-14135714D01*
X12106586Y-14121429D01*
X12092300Y-14107143D01*
X12078014Y-14078571D01*
X12063728Y-14021429D01*
X12063728Y-13950000D01*
X12078014Y-13892857D01*
X12092300Y-13864286D01*
X12106586Y-13850000D01*
X12135157Y-13835714D01*
X12363728Y-14135714D02*
X12363728Y-13935714D01*
X12363728Y-13964286D02*
X12378014Y-13950000D01*
X12406586Y-13935714D01*
X12449443Y-13935714D01*
X12478014Y-13950000D01*
X12492300Y-13978571D01*
X12492300Y-14135714D01*
X12492300Y-13978571D02*
X12506586Y-13950000D01*
X12535157Y-13935714D01*
X12578014Y-13935714D01*
X12606586Y-13950000D01*
X12620871Y-13978571D01*
X12620871Y-14135714D01*
X12763728Y-14135714D02*
X12763728Y-13935714D01*
X12763728Y-13964286D02*
X12778014Y-13950000D01*
X12806586Y-13935714D01*
X12849443Y-13935714D01*
X12878014Y-13950000D01*
X12892300Y-13978571D01*
X12892300Y-14135714D01*
X12892300Y-13978571D02*
X12906586Y-13950000D01*
X12935157Y-13935714D01*
X12978014Y-13935714D01*
X13006586Y-13950000D01*
X13020871Y-13978571D01*
X13020871Y-14135714D01*
X13606586Y-13821429D02*
X13349443Y-14207143D01*
X13992300Y-13835714D02*
X14020871Y-13835714D01*
X14049443Y-13850000D01*
X14063728Y-13864286D01*
X14078014Y-13892857D01*
X14092300Y-13950000D01*
X14092300Y-14021429D01*
X14078014Y-14078571D01*
X14063728Y-14107143D01*
X14049443Y-14121429D01*
X14020871Y-14135714D01*
X13992300Y-14135714D01*
X13963728Y-14121429D01*
X13949443Y-14107143D01*
X13935157Y-14078571D01*
X13920871Y-14021429D01*
X13920871Y-13950000D01*
X13935157Y-13892857D01*
X13949443Y-13864286D01*
X13963728Y-13850000D01*
X13992300Y-13835714D01*
X14220871Y-14107143D02*
X14235157Y-14121429D01*
X14220871Y-14135714D01*
X14206586Y-14121429D01*
X14220871Y-14107143D01*
X14220871Y-14135714D01*
X14420871Y-13835714D02*
X14449443Y-13835714D01*
X14478014Y-13850000D01*
X14492300Y-13864286D01*
X14506585Y-13892857D01*
X14520871Y-13950000D01*
X14520871Y-14021429D01*
X14506585Y-14078571D01*
X14492300Y-14107143D01*
X14478014Y-14121429D01*
X14449443Y-14135714D01*
X14420871Y-14135714D01*
X14392300Y-14121429D01*
X14378014Y-14107143D01*
X14363728Y-14078571D01*
X14349443Y-14021429D01*
X14349443Y-13950000D01*
X14363728Y-13892857D01*
X14378014Y-13864286D01*
X14392300Y-13850000D01*
X14420871Y-13835714D01*
X14620871Y-13835714D02*
X14806585Y-13835714D01*
X14706585Y-13950000D01*
X14749443Y-13950000D01*
X14778014Y-13964286D01*
X14792300Y-13978571D01*
X14806585Y-14007143D01*
X14806585Y-14078571D01*
X14792300Y-14107143D01*
X14778014Y-14121429D01*
X14749443Y-14135714D01*
X14663728Y-14135714D01*
X14635157Y-14121429D01*
X14620871Y-14107143D01*
X14949443Y-14135714D02*
X15006585Y-14135714D01*
X15035157Y-14121429D01*
X15049443Y-14107143D01*
X15078014Y-14064286D01*
X15092300Y-14007143D01*
X15092300Y-13892857D01*
X15078014Y-13864286D01*
X15063728Y-13850000D01*
X15035157Y-13835714D01*
X14978014Y-13835714D01*
X14949443Y-13850000D01*
X14935157Y-13864286D01*
X14920871Y-13892857D01*
X14920871Y-13964286D01*
X14935157Y-13992857D01*
X14949443Y-14007143D01*
X14978014Y-14021429D01*
X15035157Y-14021429D01*
X15063728Y-14007143D01*
X15078014Y-13992857D01*
X15092300Y-13964286D01*
X15206586Y-13835714D02*
X15206586Y-13892857D01*
X15320871Y-13835714D02*
X15320871Y-13892857D01*
X15763728Y-14250000D02*
X15749443Y-14235714D01*
X15720871Y-14192857D01*
X15706585Y-14164286D01*
X15692300Y-14121429D01*
X15678014Y-14050000D01*
X15678014Y-13992857D01*
X15692300Y-13921429D01*
X15706585Y-13878571D01*
X15720871Y-13850000D01*
X15749443Y-13807143D01*
X15763728Y-13792857D01*
X16006585Y-13935714D02*
X16006585Y-14135714D01*
X15935157Y-13821429D02*
X15863728Y-14035714D01*
X16049443Y-14035714D01*
X16392300Y-14135714D02*
X16392300Y-13835714D01*
X16520871Y-14135714D02*
X16520871Y-13978571D01*
X16506585Y-13950000D01*
X16478014Y-13935714D01*
X16435157Y-13935714D01*
X16406585Y-13950000D01*
X16392300Y-13964286D01*
X16706585Y-14135714D02*
X16678014Y-14121429D01*
X16663728Y-14107143D01*
X16649443Y-14078571D01*
X16649443Y-13992857D01*
X16663728Y-13964286D01*
X16678014Y-13950000D01*
X16706585Y-13935714D01*
X16749443Y-13935714D01*
X16778014Y-13950000D01*
X16792300Y-13964286D01*
X16806586Y-13992857D01*
X16806586Y-14078571D01*
X16792300Y-14107143D01*
X16778014Y-14121429D01*
X16749443Y-14135714D01*
X16706585Y-14135714D01*
X16978014Y-14135714D02*
X16949443Y-14121429D01*
X16935157Y-14092857D01*
X16935157Y-13835714D01*
X17206586Y-14121429D02*
X17178014Y-14135714D01*
X17120871Y-14135714D01*
X17092300Y-14121429D01*
X17078014Y-14092857D01*
X17078014Y-13978571D01*
X17092300Y-13950000D01*
X17120871Y-13935714D01*
X17178014Y-13935714D01*
X17206586Y-13950000D01*
X17220871Y-13978571D01*
X17220871Y-14007143D01*
X17078014Y-14035714D01*
X17335157Y-14121429D02*
X17363729Y-14135714D01*
X17420871Y-14135714D01*
X17449443Y-14121429D01*
X17463729Y-14092857D01*
X17463729Y-14078571D01*
X17449443Y-14050000D01*
X17420871Y-14035714D01*
X17378014Y-14035714D01*
X17349443Y-14021429D01*
X17335157Y-13992857D01*
X17335157Y-13978571D01*
X17349443Y-13950000D01*
X17378014Y-13935714D01*
X17420871Y-13935714D01*
X17449443Y-13950000D01*
X17563728Y-14250000D02*
X17578014Y-14235714D01*
X17606586Y-14192857D01*
X17620871Y-14164286D01*
X17635157Y-14121429D01*
X17649443Y-14050000D01*
X17649443Y-13992857D01*
X17635157Y-13921429D01*
X17620871Y-13878571D01*
X17606586Y-13850000D01*
X17578014Y-13807143D01*
X17563728Y-13792857D01*
X11042262Y-14345962D02*
X11042262Y-14446038D01*
X10992224Y-14396000D02*
X11092300Y-14396000D01*
X11520871Y-14531714D02*
X11349443Y-14531714D01*
X11435157Y-14531714D02*
X11435157Y-14231714D01*
X11406586Y-14274571D01*
X11378014Y-14303143D01*
X11349443Y-14317429D01*
X11649443Y-14503143D02*
X11663728Y-14517429D01*
X11649443Y-14531714D01*
X11635157Y-14517429D01*
X11649443Y-14503143D01*
X11649443Y-14531714D01*
X11849443Y-14231714D02*
X11878014Y-14231714D01*
X11906586Y-14246000D01*
X11920871Y-14260286D01*
X11935157Y-14288857D01*
X11949443Y-14346000D01*
X11949443Y-14417429D01*
X11935157Y-14474571D01*
X11920871Y-14503143D01*
X11906586Y-14517429D01*
X11878014Y-14531714D01*
X11849443Y-14531714D01*
X11820871Y-14517429D01*
X11806586Y-14503143D01*
X11792300Y-14474571D01*
X11778014Y-14417429D01*
X11778014Y-14346000D01*
X11792300Y-14288857D01*
X11806586Y-14260286D01*
X11820871Y-14246000D01*
X11849443Y-14231714D01*
X12135157Y-14231714D02*
X12163728Y-14231714D01*
X12192300Y-14246000D01*
X12206586Y-14260286D01*
X12220871Y-14288857D01*
X12235157Y-14346000D01*
X12235157Y-14417429D01*
X12220871Y-14474571D01*
X12206586Y-14503143D01*
X12192300Y-14517429D01*
X12163728Y-14531714D01*
X12135157Y-14531714D01*
X12106586Y-14517429D01*
X12092300Y-14503143D01*
X12078014Y-14474571D01*
X12063728Y-14417429D01*
X12063728Y-14346000D01*
X12078014Y-14288857D01*
X12092300Y-14260286D01*
X12106586Y-14246000D01*
X12135157Y-14231714D01*
X12363728Y-14531714D02*
X12363728Y-14331714D01*
X12363728Y-14360286D02*
X12378014Y-14346000D01*
X12406586Y-14331714D01*
X12449443Y-14331714D01*
X12478014Y-14346000D01*
X12492300Y-14374571D01*
X12492300Y-14531714D01*
X12492300Y-14374571D02*
X12506586Y-14346000D01*
X12535157Y-14331714D01*
X12578014Y-14331714D01*
X12606586Y-14346000D01*
X12620871Y-14374571D01*
X12620871Y-14531714D01*
X12763728Y-14531714D02*
X12763728Y-14331714D01*
X12763728Y-14360286D02*
X12778014Y-14346000D01*
X12806586Y-14331714D01*
X12849443Y-14331714D01*
X12878014Y-14346000D01*
X12892300Y-14374571D01*
X12892300Y-14531714D01*
X12892300Y-14374571D02*
X12906586Y-14346000D01*
X12935157Y-14331714D01*
X12978014Y-14331714D01*
X13006586Y-14346000D01*
X13020871Y-14374571D01*
X13020871Y-14531714D01*
X13606586Y-14217429D02*
X13349443Y-14603143D01*
X13992300Y-14231714D02*
X14020871Y-14231714D01*
X14049443Y-14246000D01*
X14063728Y-14260286D01*
X14078014Y-14288857D01*
X14092300Y-14346000D01*
X14092300Y-14417429D01*
X14078014Y-14474571D01*
X14063728Y-14503143D01*
X14049443Y-14517429D01*
X14020871Y-14531714D01*
X13992300Y-14531714D01*
X13963728Y-14517429D01*
X13949443Y-14503143D01*
X13935157Y-14474571D01*
X13920871Y-14417429D01*
X13920871Y-14346000D01*
X13935157Y-14288857D01*
X13949443Y-14260286D01*
X13963728Y-14246000D01*
X13992300Y-14231714D01*
X14220871Y-14503143D02*
X14235157Y-14517429D01*
X14220871Y-14531714D01*
X14206586Y-14517429D01*
X14220871Y-14503143D01*
X14220871Y-14531714D01*
X14420871Y-14231714D02*
X14449443Y-14231714D01*
X14478014Y-14246000D01*
X14492300Y-14260286D01*
X14506585Y-14288857D01*
X14520871Y-14346000D01*
X14520871Y-14417429D01*
X14506585Y-14474571D01*
X14492300Y-14503143D01*
X14478014Y-14517429D01*
X14449443Y-14531714D01*
X14420871Y-14531714D01*
X14392300Y-14517429D01*
X14378014Y-14503143D01*
X14363728Y-14474571D01*
X14349443Y-14417429D01*
X14349443Y-14346000D01*
X14363728Y-14288857D01*
X14378014Y-14260286D01*
X14392300Y-14246000D01*
X14420871Y-14231714D01*
X14620871Y-14231714D02*
X14806585Y-14231714D01*
X14706585Y-14346000D01*
X14749443Y-14346000D01*
X14778014Y-14360286D01*
X14792300Y-14374571D01*
X14806585Y-14403143D01*
X14806585Y-14474571D01*
X14792300Y-14503143D01*
X14778014Y-14517429D01*
X14749443Y-14531714D01*
X14663728Y-14531714D01*
X14635157Y-14517429D01*
X14620871Y-14503143D01*
X14949443Y-14531714D02*
X15006585Y-14531714D01*
X15035157Y-14517429D01*
X15049443Y-14503143D01*
X15078014Y-14460286D01*
X15092300Y-14403143D01*
X15092300Y-14288857D01*
X15078014Y-14260286D01*
X15063728Y-14246000D01*
X15035157Y-14231714D01*
X14978014Y-14231714D01*
X14949443Y-14246000D01*
X14935157Y-14260286D01*
X14920871Y-14288857D01*
X14920871Y-14360286D01*
X14935157Y-14388857D01*
X14949443Y-14403143D01*
X14978014Y-14417429D01*
X15035157Y-14417429D01*
X15063728Y-14403143D01*
X15078014Y-14388857D01*
X15092300Y-14360286D01*
X15206586Y-14231714D02*
X15206586Y-14288857D01*
X15320871Y-14231714D02*
X15320871Y-14288857D01*
X15763728Y-14646000D02*
X15749443Y-14631714D01*
X15720871Y-14588857D01*
X15706585Y-14560286D01*
X15692300Y-14517429D01*
X15678014Y-14446000D01*
X15678014Y-14388857D01*
X15692300Y-14317429D01*
X15706585Y-14274571D01*
X15720871Y-14246000D01*
X15749443Y-14203143D01*
X15763728Y-14188857D01*
X15863728Y-14260286D02*
X15878014Y-14246000D01*
X15906585Y-14231714D01*
X15978014Y-14231714D01*
X16006585Y-14246000D01*
X16020871Y-14260286D01*
X16035157Y-14288857D01*
X16035157Y-14317429D01*
X16020871Y-14360286D01*
X15849443Y-14531714D01*
X16035157Y-14531714D01*
X16392300Y-14531714D02*
X16392300Y-14231714D01*
X16520871Y-14531714D02*
X16520871Y-14374571D01*
X16506585Y-14346000D01*
X16478014Y-14331714D01*
X16435157Y-14331714D01*
X16406585Y-14346000D01*
X16392300Y-14360286D01*
X16706585Y-14531714D02*
X16678014Y-14517429D01*
X16663728Y-14503143D01*
X16649443Y-14474571D01*
X16649443Y-14388857D01*
X16663728Y-14360286D01*
X16678014Y-14346000D01*
X16706585Y-14331714D01*
X16749443Y-14331714D01*
X16778014Y-14346000D01*
X16792300Y-14360286D01*
X16806586Y-14388857D01*
X16806586Y-14474571D01*
X16792300Y-14503143D01*
X16778014Y-14517429D01*
X16749443Y-14531714D01*
X16706585Y-14531714D01*
X16978014Y-14531714D02*
X16949443Y-14517429D01*
X16935157Y-14488857D01*
X16935157Y-14231714D01*
X17206586Y-14517429D02*
X17178014Y-14531714D01*
X17120871Y-14531714D01*
X17092300Y-14517429D01*
X17078014Y-14488857D01*
X17078014Y-14374571D01*
X17092300Y-14346000D01*
X17120871Y-14331714D01*
X17178014Y-14331714D01*
X17206586Y-14346000D01*
X17220871Y-14374571D01*
X17220871Y-14403143D01*
X17078014Y-14431714D01*
X17335157Y-14517429D02*
X17363729Y-14531714D01*
X17420871Y-14531714D01*
X17449443Y-14517429D01*
X17463729Y-14488857D01*
X17463729Y-14474571D01*
X17449443Y-14446000D01*
X17420871Y-14431714D01*
X17378014Y-14431714D01*
X17349443Y-14417429D01*
X17335157Y-14388857D01*
X17335157Y-14374571D01*
X17349443Y-14346000D01*
X17378014Y-14331714D01*
X17420871Y-14331714D01*
X17449443Y-14346000D01*
X17563728Y-14646000D02*
X17578014Y-14631714D01*
X17606586Y-14588857D01*
X17620871Y-14560286D01*
X17635157Y-14517429D01*
X17649443Y-14446000D01*
X17649443Y-14388857D01*
X17635157Y-14317429D01*
X17620871Y-14274571D01*
X17606586Y-14246000D01*
X17578014Y-14203143D01*
X17563728Y-14188857D01*
X11077421Y-14827921D02*
X11077421Y-14756079D01*
X11005579Y-14756079D01*
X11005579Y-14827921D01*
X11077421Y-14827921D01*
X11520871Y-14927714D02*
X11349443Y-14927714D01*
X11435157Y-14927714D02*
X11435157Y-14627714D01*
X11406586Y-14670571D01*
X11378014Y-14699143D01*
X11349443Y-14713429D01*
X11649443Y-14899143D02*
X11663728Y-14913429D01*
X11649443Y-14927714D01*
X11635157Y-14913429D01*
X11649443Y-14899143D01*
X11649443Y-14927714D01*
X11849443Y-14627714D02*
X11878014Y-14627714D01*
X11906586Y-14642000D01*
X11920871Y-14656286D01*
X11935157Y-14684857D01*
X11949443Y-14742000D01*
X11949443Y-14813429D01*
X11935157Y-14870571D01*
X11920871Y-14899143D01*
X11906586Y-14913429D01*
X11878014Y-14927714D01*
X11849443Y-14927714D01*
X11820871Y-14913429D01*
X11806586Y-14899143D01*
X11792300Y-14870571D01*
X11778014Y-14813429D01*
X11778014Y-14742000D01*
X11792300Y-14684857D01*
X11806586Y-14656286D01*
X11820871Y-14642000D01*
X11849443Y-14627714D01*
X12063728Y-14656286D02*
X12078014Y-14642000D01*
X12106586Y-14627714D01*
X12178014Y-14627714D01*
X12206586Y-14642000D01*
X12220871Y-14656286D01*
X12235157Y-14684857D01*
X12235157Y-14713429D01*
X12220871Y-14756286D01*
X12049443Y-14927714D01*
X12235157Y-14927714D01*
X12363728Y-14927714D02*
X12363728Y-14727714D01*
X12363728Y-14756286D02*
X12378014Y-14742000D01*
X12406586Y-14727714D01*
X12449443Y-14727714D01*
X12478014Y-14742000D01*
X12492300Y-14770571D01*
X12492300Y-14927714D01*
X12492300Y-14770571D02*
X12506586Y-14742000D01*
X12535157Y-14727714D01*
X12578014Y-14727714D01*
X12606586Y-14742000D01*
X12620871Y-14770571D01*
X12620871Y-14927714D01*
X12763728Y-14927714D02*
X12763728Y-14727714D01*
X12763728Y-14756286D02*
X12778014Y-14742000D01*
X12806586Y-14727714D01*
X12849443Y-14727714D01*
X12878014Y-14742000D01*
X12892300Y-14770571D01*
X12892300Y-14927714D01*
X12892300Y-14770571D02*
X12906586Y-14742000D01*
X12935157Y-14727714D01*
X12978014Y-14727714D01*
X13006586Y-14742000D01*
X13020871Y-14770571D01*
X13020871Y-14927714D01*
X13606586Y-14613429D02*
X13349443Y-14999143D01*
X13992300Y-14627714D02*
X14020871Y-14627714D01*
X14049443Y-14642000D01*
X14063728Y-14656286D01*
X14078014Y-14684857D01*
X14092300Y-14742000D01*
X14092300Y-14813429D01*
X14078014Y-14870571D01*
X14063728Y-14899143D01*
X14049443Y-14913429D01*
X14020871Y-14927714D01*
X13992300Y-14927714D01*
X13963728Y-14913429D01*
X13949443Y-14899143D01*
X13935157Y-14870571D01*
X13920871Y-14813429D01*
X13920871Y-14742000D01*
X13935157Y-14684857D01*
X13949443Y-14656286D01*
X13963728Y-14642000D01*
X13992300Y-14627714D01*
X14220871Y-14899143D02*
X14235157Y-14913429D01*
X14220871Y-14927714D01*
X14206586Y-14913429D01*
X14220871Y-14899143D01*
X14220871Y-14927714D01*
X14420871Y-14627714D02*
X14449443Y-14627714D01*
X14478014Y-14642000D01*
X14492300Y-14656286D01*
X14506585Y-14684857D01*
X14520871Y-14742000D01*
X14520871Y-14813429D01*
X14506585Y-14870571D01*
X14492300Y-14899143D01*
X14478014Y-14913429D01*
X14449443Y-14927714D01*
X14420871Y-14927714D01*
X14392300Y-14913429D01*
X14378014Y-14899143D01*
X14363728Y-14870571D01*
X14349443Y-14813429D01*
X14349443Y-14742000D01*
X14363728Y-14684857D01*
X14378014Y-14656286D01*
X14392300Y-14642000D01*
X14420871Y-14627714D01*
X14778014Y-14727714D02*
X14778014Y-14927714D01*
X14706585Y-14613429D02*
X14635157Y-14827714D01*
X14820871Y-14827714D01*
X14992300Y-14627714D02*
X15020871Y-14627714D01*
X15049443Y-14642000D01*
X15063728Y-14656286D01*
X15078014Y-14684857D01*
X15092300Y-14742000D01*
X15092300Y-14813429D01*
X15078014Y-14870571D01*
X15063728Y-14899143D01*
X15049443Y-14913429D01*
X15020871Y-14927714D01*
X14992300Y-14927714D01*
X14963728Y-14913429D01*
X14949443Y-14899143D01*
X14935157Y-14870571D01*
X14920871Y-14813429D01*
X14920871Y-14742000D01*
X14935157Y-14684857D01*
X14949443Y-14656286D01*
X14963728Y-14642000D01*
X14992300Y-14627714D01*
X15206586Y-14627714D02*
X15206586Y-14684857D01*
X15320871Y-14627714D02*
X15320871Y-14684857D01*
X15763728Y-15042000D02*
X15749443Y-15027714D01*
X15720871Y-14984857D01*
X15706585Y-14956286D01*
X15692300Y-14913429D01*
X15678014Y-14842000D01*
X15678014Y-14784857D01*
X15692300Y-14713429D01*
X15706585Y-14670571D01*
X15720871Y-14642000D01*
X15749443Y-14599143D01*
X15763728Y-14584857D01*
X16006585Y-14727714D02*
X16006585Y-14927714D01*
X15935157Y-14613429D02*
X15863728Y-14827714D01*
X16049443Y-14827714D01*
X16206585Y-14756286D02*
X16178014Y-14742000D01*
X16163728Y-14727714D01*
X16149443Y-14699143D01*
X16149443Y-14684857D01*
X16163728Y-14656286D01*
X16178014Y-14642000D01*
X16206585Y-14627714D01*
X16263728Y-14627714D01*
X16292300Y-14642000D01*
X16306585Y-14656286D01*
X16320871Y-14684857D01*
X16320871Y-14699143D01*
X16306585Y-14727714D01*
X16292300Y-14742000D01*
X16263728Y-14756286D01*
X16206585Y-14756286D01*
X16178014Y-14770571D01*
X16163728Y-14784857D01*
X16149443Y-14813429D01*
X16149443Y-14870571D01*
X16163728Y-14899143D01*
X16178014Y-14913429D01*
X16206585Y-14927714D01*
X16263728Y-14927714D01*
X16292300Y-14913429D01*
X16306585Y-14899143D01*
X16320871Y-14870571D01*
X16320871Y-14813429D01*
X16306585Y-14784857D01*
X16292300Y-14770571D01*
X16263728Y-14756286D01*
X16678014Y-14927714D02*
X16678014Y-14627714D01*
X16806586Y-14927714D02*
X16806586Y-14770571D01*
X16792300Y-14742000D01*
X16763728Y-14727714D01*
X16720871Y-14727714D01*
X16692300Y-14742000D01*
X16678014Y-14756286D01*
X16992300Y-14927714D02*
X16963728Y-14913429D01*
X16949443Y-14899143D01*
X16935157Y-14870571D01*
X16935157Y-14784857D01*
X16949443Y-14756286D01*
X16963728Y-14742000D01*
X16992300Y-14727714D01*
X17035157Y-14727714D01*
X17063728Y-14742000D01*
X17078014Y-14756286D01*
X17092300Y-14784857D01*
X17092300Y-14870571D01*
X17078014Y-14899143D01*
X17063728Y-14913429D01*
X17035157Y-14927714D01*
X16992300Y-14927714D01*
X17263728Y-14927714D02*
X17235157Y-14913429D01*
X17220871Y-14884857D01*
X17220871Y-14627714D01*
X17492300Y-14913429D02*
X17463729Y-14927714D01*
X17406586Y-14927714D01*
X17378014Y-14913429D01*
X17363729Y-14884857D01*
X17363729Y-14770571D01*
X17378014Y-14742000D01*
X17406586Y-14727714D01*
X17463729Y-14727714D01*
X17492300Y-14742000D01*
X17506586Y-14770571D01*
X17506586Y-14799143D01*
X17363729Y-14827714D01*
X17620871Y-14913429D02*
X17649443Y-14927714D01*
X17706586Y-14927714D01*
X17735157Y-14913429D01*
X17749443Y-14884857D01*
X17749443Y-14870571D01*
X17735157Y-14842000D01*
X17706586Y-14827714D01*
X17663729Y-14827714D01*
X17635157Y-14813429D01*
X17620871Y-14784857D01*
X17620871Y-14770571D01*
X17635157Y-14742000D01*
X17663729Y-14727714D01*
X17706586Y-14727714D01*
X17735157Y-14742000D01*
X17849443Y-15042000D02*
X17863729Y-15027714D01*
X17892300Y-14984857D01*
X17906586Y-14956286D01*
X17920871Y-14913429D01*
X17935157Y-14842000D01*
X17935157Y-14784857D01*
X17920871Y-14713429D01*
X17906586Y-14670571D01*
X17892300Y-14642000D01*
X17863729Y-14599143D01*
X17849443Y-14584857D01*
X10939900Y-15340400D02*
X11092300Y-15188000D01*
X10939900Y-15035600D01*
X10787500Y-15188000D01*
X10939900Y-15340400D01*
X11335157Y-15023714D02*
X11520871Y-15023714D01*
X11420871Y-15138000D01*
X11463728Y-15138000D01*
X11492300Y-15152286D01*
X11506586Y-15166571D01*
X11520871Y-15195143D01*
X11520871Y-15266571D01*
X11506586Y-15295143D01*
X11492300Y-15309429D01*
X11463728Y-15323714D01*
X11378014Y-15323714D01*
X11349443Y-15309429D01*
X11335157Y-15295143D01*
X11649443Y-15295143D02*
X11663728Y-15309429D01*
X11649443Y-15323714D01*
X11635157Y-15309429D01*
X11649443Y-15295143D01*
X11649443Y-15323714D01*
X11849443Y-15023714D02*
X11878014Y-15023714D01*
X11906586Y-15038000D01*
X11920871Y-15052286D01*
X11935157Y-15080857D01*
X11949443Y-15138000D01*
X11949443Y-15209429D01*
X11935157Y-15266571D01*
X11920871Y-15295143D01*
X11906586Y-15309429D01*
X11878014Y-15323714D01*
X11849443Y-15323714D01*
X11820871Y-15309429D01*
X11806586Y-15295143D01*
X11792300Y-15266571D01*
X11778014Y-15209429D01*
X11778014Y-15138000D01*
X11792300Y-15080857D01*
X11806586Y-15052286D01*
X11820871Y-15038000D01*
X11849443Y-15023714D01*
X12220871Y-15023714D02*
X12078014Y-15023714D01*
X12063728Y-15166571D01*
X12078014Y-15152286D01*
X12106586Y-15138000D01*
X12178014Y-15138000D01*
X12206586Y-15152286D01*
X12220871Y-15166571D01*
X12235157Y-15195143D01*
X12235157Y-15266571D01*
X12220871Y-15295143D01*
X12206586Y-15309429D01*
X12178014Y-15323714D01*
X12106586Y-15323714D01*
X12078014Y-15309429D01*
X12063728Y-15295143D01*
X12363728Y-15323714D02*
X12363728Y-15123714D01*
X12363728Y-15152286D02*
X12378014Y-15138000D01*
X12406586Y-15123714D01*
X12449443Y-15123714D01*
X12478014Y-15138000D01*
X12492300Y-15166571D01*
X12492300Y-15323714D01*
X12492300Y-15166571D02*
X12506586Y-15138000D01*
X12535157Y-15123714D01*
X12578014Y-15123714D01*
X12606586Y-15138000D01*
X12620871Y-15166571D01*
X12620871Y-15323714D01*
X12763728Y-15323714D02*
X12763728Y-15123714D01*
X12763728Y-15152286D02*
X12778014Y-15138000D01*
X12806586Y-15123714D01*
X12849443Y-15123714D01*
X12878014Y-15138000D01*
X12892300Y-15166571D01*
X12892300Y-15323714D01*
X12892300Y-15166571D02*
X12906586Y-15138000D01*
X12935157Y-15123714D01*
X12978014Y-15123714D01*
X13006586Y-15138000D01*
X13020871Y-15166571D01*
X13020871Y-15323714D01*
X13606586Y-15009429D02*
X13349443Y-15395143D01*
X13992300Y-15023714D02*
X14020871Y-15023714D01*
X14049443Y-15038000D01*
X14063728Y-15052286D01*
X14078014Y-15080857D01*
X14092300Y-15138000D01*
X14092300Y-15209429D01*
X14078014Y-15266571D01*
X14063728Y-15295143D01*
X14049443Y-15309429D01*
X14020871Y-15323714D01*
X13992300Y-15323714D01*
X13963728Y-15309429D01*
X13949443Y-15295143D01*
X13935157Y-15266571D01*
X13920871Y-15209429D01*
X13920871Y-15138000D01*
X13935157Y-15080857D01*
X13949443Y-15052286D01*
X13963728Y-15038000D01*
X13992300Y-15023714D01*
X14220871Y-15295143D02*
X14235157Y-15309429D01*
X14220871Y-15323714D01*
X14206586Y-15309429D01*
X14220871Y-15295143D01*
X14220871Y-15323714D01*
X14520871Y-15323714D02*
X14349443Y-15323714D01*
X14435157Y-15323714D02*
X14435157Y-15023714D01*
X14406585Y-15066571D01*
X14378014Y-15095143D01*
X14349443Y-15109429D01*
X14635157Y-15052286D02*
X14649443Y-15038000D01*
X14678014Y-15023714D01*
X14749443Y-15023714D01*
X14778014Y-15038000D01*
X14792300Y-15052286D01*
X14806585Y-15080857D01*
X14806585Y-15109429D01*
X14792300Y-15152286D01*
X14620871Y-15323714D01*
X14806585Y-15323714D01*
X14992300Y-15023714D02*
X15020871Y-15023714D01*
X15049443Y-15038000D01*
X15063728Y-15052286D01*
X15078014Y-15080857D01*
X15092300Y-15138000D01*
X15092300Y-15209429D01*
X15078014Y-15266571D01*
X15063728Y-15295143D01*
X15049443Y-15309429D01*
X15020871Y-15323714D01*
X14992300Y-15323714D01*
X14963728Y-15309429D01*
X14949443Y-15295143D01*
X14935157Y-15266571D01*
X14920871Y-15209429D01*
X14920871Y-15138000D01*
X14935157Y-15080857D01*
X14949443Y-15052286D01*
X14963728Y-15038000D01*
X14992300Y-15023714D01*
X15206586Y-15023714D02*
X15206586Y-15080857D01*
X15320871Y-15023714D02*
X15320871Y-15080857D01*
X15763728Y-15438000D02*
X15749443Y-15423714D01*
X15720871Y-15380857D01*
X15706585Y-15352286D01*
X15692300Y-15309429D01*
X15678014Y-15238000D01*
X15678014Y-15180857D01*
X15692300Y-15109429D01*
X15706585Y-15066571D01*
X15720871Y-15038000D01*
X15749443Y-14995143D01*
X15763728Y-14980857D01*
X16006585Y-15123714D02*
X16006585Y-15323714D01*
X15935157Y-15009429D02*
X15863728Y-15223714D01*
X16049443Y-15223714D01*
X16392300Y-15323714D02*
X16392300Y-15023714D01*
X16520871Y-15323714D02*
X16520871Y-15166571D01*
X16506585Y-15138000D01*
X16478014Y-15123714D01*
X16435157Y-15123714D01*
X16406585Y-15138000D01*
X16392300Y-15152286D01*
X16706585Y-15323714D02*
X16678014Y-15309429D01*
X16663728Y-15295143D01*
X16649443Y-15266571D01*
X16649443Y-15180857D01*
X16663728Y-15152286D01*
X16678014Y-15138000D01*
X16706585Y-15123714D01*
X16749443Y-15123714D01*
X16778014Y-15138000D01*
X16792300Y-15152286D01*
X16806586Y-15180857D01*
X16806586Y-15266571D01*
X16792300Y-15295143D01*
X16778014Y-15309429D01*
X16749443Y-15323714D01*
X16706585Y-15323714D01*
X16978014Y-15323714D02*
X16949443Y-15309429D01*
X16935157Y-15280857D01*
X16935157Y-15023714D01*
X17206586Y-15309429D02*
X17178014Y-15323714D01*
X17120871Y-15323714D01*
X17092300Y-15309429D01*
X17078014Y-15280857D01*
X17078014Y-15166571D01*
X17092300Y-15138000D01*
X17120871Y-15123714D01*
X17178014Y-15123714D01*
X17206586Y-15138000D01*
X17220871Y-15166571D01*
X17220871Y-15195143D01*
X17078014Y-15223714D01*
X17335157Y-15309429D02*
X17363729Y-15323714D01*
X17420871Y-15323714D01*
X17449443Y-15309429D01*
X17463729Y-15280857D01*
X17463729Y-15266571D01*
X17449443Y-15238000D01*
X17420871Y-15223714D01*
X17378014Y-15223714D01*
X17349443Y-15209429D01*
X17335157Y-15180857D01*
X17335157Y-15166571D01*
X17349443Y-15138000D01*
X17378014Y-15123714D01*
X17420871Y-15123714D01*
X17449443Y-15138000D01*
X17563728Y-15438000D02*
X17578014Y-15423714D01*
X17606586Y-15380857D01*
X17620871Y-15352286D01*
X17635157Y-15309429D01*
X17649443Y-15238000D01*
X17649443Y-15180857D01*
X17635157Y-15109429D01*
X17620871Y-15066571D01*
X17606586Y-15038000D01*
X17578014Y-14995143D01*
X17563728Y-14980857D01*
M02*
