M48
;DRILL file {KiCad 4.0.5+dfsg1-4} date Fri Nov 23 12:42:54 2018
;FORMAT={-:-/ absolute / metric / decimal}
FMAT,2
METRIC,TZ
T1C0.600
T2C1.000
T3C1.001
T4C1.016
T5C3.048
%
G90
G05
M71
T1
X134.259Y-101.465
X134.302Y-103.706
X139.205Y-103.726
X139.207Y-101.471
X159.238Y-79.616
X159.238Y-84.374
X163.469Y-94.911
X163.469Y-97.782
X163.551Y-100.406
X163.594Y-103.962
X165.489Y-107.874
X170.972Y-107.874
X177.437Y-99.04
T2
X151.825Y-101.471
X151.825Y-105.471
X157.825Y-101.471
X157.825Y-105.471
T3
X176.881Y-111.773
X176.881Y-114.313
T4
X129.794Y-75.565
X132.334Y-75.565
X134.874Y-75.565
X137.414Y-75.565
X138.938Y-123.825
X139.954Y-75.565
X141.478Y-123.825
X142.494Y-75.565
X144.018Y-123.825
X144.026Y-112.075
X144.026Y-114.615
X145.034Y-75.565
X146.558Y-123.825
X147.574Y-75.565
X149.098Y-123.825
X150.114Y-75.565
X151.638Y-123.825
X152.654Y-75.565
X154.178Y-123.825
X156.718Y-75.565
X156.718Y-123.825
X159.258Y-75.565
X161.798Y-75.565
X161.798Y-123.825
X164.338Y-75.565
X164.338Y-123.825
X166.878Y-75.565
X166.878Y-123.825
X168.3Y-96.337
X168.3Y-98.877
X168.3Y-101.417
X168.3Y-103.957
X168.316Y-82.667
X168.316Y-87.493
X169.418Y-75.565
X169.418Y-123.825
X170.84Y-96.337
X170.84Y-98.877
X170.84Y-101.417
X170.84Y-103.957
X170.856Y-82.667
X170.856Y-87.493
X171.308Y-111.552
X171.308Y-114.092
X171.958Y-75.565
X171.958Y-123.825
X174.498Y-75.565
X174.498Y-123.825
T5
X124.968Y-123.825
X126.238Y-75.565
X177.038Y-90.805
X177.038Y-118.745
T0
M30
